Coordinates
version=1
nRows=19
nColumns=36
inDegrees=yes

Units are S.I. units (second, meters, Newtons, ...)
If the header above contains a line with 'inDegrees', this indicates whether rotational values are in degrees (yes) or radians (no).

endheader
time	pelvis_tilt	pelvis_list	pelvis_rotation	pelvis_tx	pelvis_ty	pelvis_tz	hip_flexion_r	hip_adduction_r	hip_rotation_r	knee_angle_r	knee_angle_r_beta	ankle_angle_r	subtalar_angle_r	mtp_angle_r	hip_flexion_l	hip_adduction_l	hip_rotation_l	knee_angle_l	knee_angle_l_beta	ankle_angle_l	subtalar_angle_l	mtp_angle_l	lumbar_extension	lumbar_bending	lumbar_rotation	arm_flex_r	arm_add_r	arm_rot_r	elbow_flex_r	pro_sup_r	arm_flex_l	arm_add_l	arm_rot_l	elbow_flex_l	pro_sup_l
      0.00000000	     32.52378558	     -1.52973637	     -0.58621140	     -0.53537173	      0.58497576	     -0.58066510	     56.02203977	     -5.38185726	     -2.86577443	     95.25087990	      1.66244147	      6.56250269	     -4.37924720	     -3.96678056	     55.89403469	    -11.61721206	      1.71154076	     93.69625711	      1.63530818	      8.69252742	     -1.32208396	     -3.96678056	    -48.15669108	      2.13937873	      1.76337775	     28.39959909	    -15.73421069	     -1.71292760	     81.25572778	     90.47352247	     24.96803170	    -15.89581226	     -7.08426543	     81.57719320	     75.90579778
      0.01000000	     32.57283327	     -1.55702884	     -0.58212916	     -0.53534311	      0.58504044	     -0.58070855	     55.93963904	     -5.35766937	     -2.89053565	     95.23256485	      1.66212181	      6.75563778	     -4.44244643	     -4.05384799	     55.85381459	    -11.63861727	      1.72039465	     93.74342229	      1.63613137	      8.74252585	     -1.36616348	     -4.05384799	    -48.29680647	      2.17226575	      1.77911171	     28.43748583	    -15.79870621	     -1.56057489	     81.44514549	     90.29917745	     25.01382324	    -15.89751458	     -7.10913226	     81.78322278	     75.80306829
      0.02000000	     32.58419496	     -1.56982736	     -0.58293199	     -0.53533640	      0.58500823	     -0.58072571	     55.92884653	     -5.34263617	     -2.88470874	     95.23969205	      1.66224620	      6.78692474	     -4.37551845	     -4.19212862	     55.85555364	    -11.63634212	      1.74074626	     93.76007965	      1.63642210	      8.73125142	     -1.37582102	     -4.19212862	    -48.35327138	      2.13623483	      1.83553996	     28.45378351	    -15.85795195	     -1.54012885	     81.49036087	     89.87309639	     25.14361281	    -15.88409176	     -7.06235391	     81.90902454	     75.61598789
      0.03000000	     32.55341327	     -1.53262973	     -0.57826512	     -0.53532422	      0.58488100	     -0.58066599	     56.00750218	     -5.35770927	     -2.83167900	     95.28647424	      1.66306271	      6.67662851	     -4.24284204	     -4.31488167	     55.89520560	    -11.59449088	      1.72788863	     93.74914486	      1.63623125	      8.58141024	     -1.35671835	     -4.31488167	    -48.29694167	      2.13179788	      1.79844239	     28.52300187	    -15.81105935	     -1.53328529	     81.42999728	     89.41418446	     25.24803950	    -15.89495811	     -7.05181597	     81.82077900	     75.34135766
      0.04000000	     32.56839390	     -1.55409007	     -0.61140893	     -0.53527637	      0.58487241	     -0.58044524	     55.97574075	     -5.25924113	     -2.81099023	     95.28107985	      1.66296856	      6.96506921	     -4.21991993	     -4.94344417	     55.87232843	    -11.66650293	      1.68750941	     93.76673929	      1.63653833	      8.62876153	     -1.64695525	     -4.94344417	    -48.27826498	      2.27058465	      1.65201313	     28.72579267	    -15.65411475	     -1.12276739	     81.58655040	     86.77043647	     25.15641729	    -16.11898410	     -7.03587537	     81.79867588	     74.09795756
      0.05000000	     32.51666597	     -1.51737331	     -0.58411684	     -0.53520056	      0.58480323	     -0.58047126	     56.05525584	     -5.29532329	     -2.77203106	     95.31199247	      1.66350809	      6.83931573	     -4.11992964	     -5.03217831	     55.93072041	    -11.60668647	      1.68126561	     93.74911902	      1.63623080	      8.47621579	     -1.60861024	     -5.03217831	    -48.21817027	      2.25397215	      1.60975952	     28.77219885	    -15.61858091	     -1.10319267	     81.47927237	     86.35800550	     25.25223580	    -16.09432983	     -7.04723260	     81.73854104	     73.84720102
      0.06000000	     32.48411542	     -1.57914716	     -0.55505032	     -0.53502484	      0.58485866	     -0.58060123	     56.03434285	     -5.26795084	     -2.84796997	     95.27879119	      1.66292861	      6.95606099	     -4.30465771	     -5.09818896	     55.98455661	    -11.61713491	      1.75055425	     93.78919428	      1.63693024	      8.66113049	     -1.62722110	     -5.09818896	    -48.24838950	      2.18540921	      1.73190891	     28.68798901	    -15.76573569	     -1.06778447	     81.47917477	     86.28565620	     25.33925505	    -15.96668423	     -7.01543661	     82.02152758	     73.84733278
      0.07000000	     32.42247593	     -1.54839423	     -0.53877656	     -0.53487992	      0.58484899	     -0.58073167	     56.11514065	     -5.32211063	     -2.81463605	     95.30783490	      1.66343552	      6.82827287	     -4.15000043	     -5.19226834	     56.05044980	    -11.55729612	      1.74088573	     93.78326053	      1.63682668	      8.50897782	     -1.57643728	     -5.19226834	    -48.21537198	      2.11480704	      1.70890451	     28.70672402	    -15.76824090	     -1.08831651	     81.42234519	     85.87524580	     25.43916593	    -15.95695609	     -7.00690972	     81.97175589	     73.63904197
      0.08000000	     32.37061026	     -1.52796951	     -0.53147798	     -0.53477939	      0.58482688	     -0.58072590	     56.18464807	     -5.33436519	     -2.78955920	     95.32821379	      1.66379120	      6.76053332	     -4.11470917	     -5.25058022	     56.10006720	    -11.52733589	      1.74444252	     93.77368730	      1.63665960	      8.42540027	     -1.57475707	     -5.25058022	    -48.18852476	      2.09617561	      1.69965195	     28.71838092	    -15.73904419	     -1.10436018	     81.38817015	     85.58426246	     25.52470396	    -15.94242385	     -6.98066813	     81.92603514	     73.44284480
      0.09000000	     32.37507016	     -1.60541004	     -0.52255878	     -0.53464637	      0.58484665	     -0.58068925	     56.12748930	     -5.26427804	     -2.87861932	     95.29491622	      1.66321005	      6.94601512	     -4.38065911	     -5.27740858	     56.11479301	    -11.59064534	      1.81709214	     93.82207872	      1.63750418	      8.68470510	     -1.63914018	     -5.27740858	    -48.22006308	      2.18782270	      1.76884008	     28.66633521	    -15.77196785	     -1.09632983	     81.61639949	     85.64631071	     25.51600811	    -15.97373832	     -6.85296973	     82.02706450	     73.42978462
      0.10000000	     32.33778174	     -1.57238987	     -0.50784972	     -0.53457675	      0.58474510	     -0.58069449	     56.21000333	     -5.29126491	     -2.82996073	     95.34158859	      1.66402463	      6.82394224	     -4.29059285	     -5.34525580	     56.15604319	    -11.54408639	      1.81333440	     93.81037966	      1.63730000	      8.53559784	     -1.60881339	     -5.34525580	    -48.17230692	      2.16798437	      1.74158837	     28.70445326	    -15.74696248	     -1.11162045	     81.53389066	     85.27887688	     25.61437721	    -15.96105046	     -6.83559094	     81.93244372	     73.19274902
      0.11000000	     32.30731416	     -1.54801981	     -0.51324544	     -0.53448109	      0.58464933	     -0.58072106	     56.26903362	     -5.30703510	     -2.79935238	     95.37571224	      1.66462020	      6.73747508	     -4.23502000	     -5.40664087	     56.19482140	    -11.51131556	      1.80037286	     93.82433110	      1.63754350	      8.42546800	     -1.59483994	     -5.40664087	    -48.13550315	      2.14567168	      1.72864621	     28.73799229	    -15.72441159	     -1.10892784	     81.48369187	     84.95411715	     25.69231214	    -15.94479802	     -6.79849070	     81.85615569	     72.97574101
      0.12000000	     32.30587540	     -1.65487234	     -0.52955366	     -0.53435087	      0.58470519	     -0.58070211	     56.20876067	     -5.18859305	     -2.88568457	     95.31487844	      1.66355845	      6.85689117	     -4.48987790	     -5.42629802	     56.21340808	    -11.61902390	      1.88093762	     93.87885588	      1.63849513	      8.70944217	     -1.53402067	     -5.42629802	    -48.18342532	      2.23524083	      1.88339337	     28.67182286	    -15.86984053	     -1.02785368	     81.70732704	     85.26021322	     25.72951571	    -15.94282838	     -6.61426762	     81.92135479	     73.11423367
      0.13000000	     32.25598823	     -1.62144548	     -0.52205001	     -0.53423669	      0.58468711	     -0.58077425	     56.28507947	     -5.21779429	     -2.83770424	     95.34307918	      1.66405065	      6.75158541	     -4.38211855	     -5.48914701	     56.26260535	    -11.57955963	      1.86172609	     93.86696289	      1.63828756	      8.57724047	     -1.50483532	     -5.48914701	    -48.14204886	      2.21784513	      1.85262966	     28.71222629	    -15.86723086	     -1.04527952	     81.63976421	     84.94158322	     25.80317382	    -15.93836378	     -6.60999617	     81.83927319	     72.92597195
      0.14000000	     32.22207104	     -1.60712503	     -0.52806226	     -0.53412243	      0.58466707	     -0.58080179	     56.32934375	     -5.22182742	     -2.81286193	     95.36023629	      1.66435010	      6.71395164	     -4.36735137	     -5.52981651	     56.30874200	    -11.56894705	      1.84682076	     93.88235428	      1.63855619	      8.52123532	     -1.50982604	     -5.52981651	    -48.10796821	      2.21183001	      1.84318991	     28.74865544	    -15.86202049	     -1.03469189	     81.61288282	     84.74098180	     25.86526257	    -15.92528216	     -6.58646890	     81.78457821	     72.78247017
      0.15000000	     32.16984200	     -1.59132415	     -0.51563770	     -0.53401833	      0.58465991	     -0.58082596	     56.40136687	     -5.22228310	     -2.77950995	     95.38188698	      1.66472797	      6.65919320	     -4.34389511	     -5.56679420	     56.34574809	    -11.53560333	      1.84605862	     93.86889131	      1.63832122	      8.44510591	     -1.51342191	     -5.56679420	    -48.09160521	      2.20868049	      1.82709904	     28.78883602	    -15.86747560	     -1.03312195	     81.56828553	     84.52398277	     25.94046106	    -15.93515433	     -6.56791175	     81.72935576	     72.62369398
      0.16000000	     32.12209189	     -1.57458312	     -0.51600509	     -0.53394522	      0.58463246	     -0.58086004	     56.46184364	     -5.22696219	     -2.75431464	     95.39232638	      1.66491018	      6.62003531	     -4.33938929	     -5.59896738	     56.39328496	    -11.49671214	      1.85151020	     93.86370189	      1.63823065	      8.39117402	     -1.52767670	     -5.59896738	    -48.07008728	      2.20296199	      1.81140233	     28.83804852	    -15.87614770	     -1.01633692	     81.54468725	     84.33181542	     26.02012621	    -15.94769903	     -6.52763345	     81.69615627	     72.47850113
      0.17000000	     32.07205390	     -1.62390684	     -0.50759797	     -0.53382976	      0.58465692	     -0.58093741	     56.46892895	     -5.17309896	     -2.78915288	     95.34394552	      1.66406577	      6.84800907	     -4.53498717	     -5.63497032	     56.46489189	    -11.55509583	      1.85747623	     93.89774845	      1.63882487	      8.64700107	     -1.60591063	     -5.63497032	    -48.09678327	      2.26042424	      1.85293883	     28.81064682	    -16.03878432	     -0.82657321	     81.77003664	     84.42930545	     26.01228529	    -16.05252005	     -6.27522481	     81.88093805	     72.55457209
      0.18000000	     32.00832463	     -1.56562234	     -0.48521624	     -0.53372882	      0.58472973	     -0.58107374	     56.53347844	     -5.24291741	     -2.73711426	     95.33499625	      1.66390958	      6.72400809	     -4.34204024	     -5.71034285	     56.53956168	    -11.51989299	      1.78633366	     93.87508791	      1.63842937	      8.48371446	     -1.53691984	     -5.71034285	    -48.07197900	      2.24427651	      1.80162856	     28.83470498	    -16.03629935	     -0.83170008	     81.70881395	     84.06664030	     26.06374568	    -16.02485684	     -6.25407298	     81.82116110	     72.38685434
